<?xml version="1.0" encoding="UTF-8"?>
<svg xmlns="http://www.w3.org/2000/svg" xmlns:xlink="http://www.w3.org/1999/xlink" viewBox="0 0 64 64" width="64px" height="64px">
<defs>
<linearGradient id="linear0" gradientUnits="userSpaceOnUse" x1="125.793808" y1="26.469191" x2="125.793808" y2="65.077812" gradientTransform="matrix(0.372093,0,0,0.372093,0,0)">
<stop offset="0" style="stop-color:rgb(100%,100%,100%);stop-opacity:1;"/>
<stop offset="1" style="stop-color:rgb(78.039217%,88.235295%,100%);stop-opacity:1;"/>
</linearGradient>
<linearGradient id="linear1" gradientUnits="userSpaceOnUse" x1="86" y1="21.72575" x2="86" y2="150.043137" gradientTransform="matrix(0.372093,0,0,0.372093,0,0)">
<stop offset="0" style="stop-color:rgb(74.117649%,85.882354%,100%);stop-opacity:1;"/>
<stop offset="1" style="stop-color:rgb(34.117648%,64.313728%,100%);stop-opacity:1;"/>
</linearGradient>
</defs>
<g id="surface54895783">
<path style=" stroke:none;fill-rule:nonzero;fill:url(#linear0);" d="M 49.480469 24.390625 L 39.609375 14.519531 L 43.839844 10.285156 C 44.230469 9.894531 44.859375 9.894531 45.25 10.285156 L 53.714844 18.75 C 54.105469 19.140625 54.105469 19.769531 53.714844 20.160156 Z M 49.480469 24.390625 "/>
<path style=" stroke:none;fill-rule:nonzero;fill:url(#linear1);" d="M 50.695312 26 L 55.125 21.570312 C 56.292969 20.402344 56.292969 18.507812 55.125 17.339844 L 46.660156 8.875 C 45.492188 7.707031 43.597656 7.707031 42.429688 8.875 L 38 13.304688 C 37.335938 13.128906 36.601562 13.292969 36.082031 13.8125 L 34.671875 15.222656 C 34.148438 15.742188 33.984375 16.480469 34.160156 17.144531 L 10.691406 40.613281 L 10.488281 40.8125 L 8.117188 50.78125 C 7.773438 52.222656 8.195312 53.710938 9.242188 54.757812 C 10.289062 55.804688 11.777344 56.226562 13.21875 55.882812 L 23.1875 53.507812 L 46.859375 29.835938 C 47.523438 30.011719 48.257812 29.847656 48.777344 29.328125 L 50.1875 27.917969 C 50.707031 27.398438 50.871094 26.664062 50.695312 26 Z M 47.367188 27.921875 L 36.082031 16.632812 L 37.492188 15.222656 L 48.777344 26.507812 Z M 23.460938 50.414062 C 23.179688 49.351562 22.777344 48.335938 22.261719 47.378906 L 43.132812 26.507812 L 45.25 28.625 Z M 14.914062 53.429688 C 14.796875 52.355469 14.335938 51.3125 13.511719 50.488281 C 12.6875 49.664062 11.644531 49.203125 10.570312 49.085938 L 11.269531 46.152344 C 12.917969 46.417969 14.441406 47.1875 15.628906 48.371094 C 16.8125 49.558594 17.582031 51.082031 17.847656 52.730469 Z M 17.039062 46.960938 C 15.589844 45.515625 13.738281 44.566406 11.730469 44.210938 L 12.195312 42.269531 C 14.578125 42.710938 16.726562 43.832031 18.449219 45.550781 C 20.171875 47.269531 21.289062 49.421875 21.730469 51.804688 L 19.789062 52.269531 C 19.433594 50.261719 18.484375 48.410156 17.039062 46.960938 Z M 19.859375 44.140625 C 19.382812 43.664062 18.871094 43.234375 18.34375 42.835938 L 38.902344 22.277344 L 41.722656 25.097656 L 21.164062 45.65625 C 20.765625 45.128906 20.335938 44.617188 19.859375 44.140625 Z M 16.621094 41.738281 C 15.664062 41.222656 14.648438 40.820312 13.585938 40.539062 L 35.375 18.75 L 37.492188 20.867188 Z M 43.839844 10.285156 C 44.230469 9.898438 44.863281 9.898438 45.25 10.285156 L 53.714844 18.75 C 54.105469 19.140625 54.105469 19.773438 53.714844 20.160156 L 49.484375 24.394531 L 39.609375 14.519531 Z M 43.839844 10.285156 "/>
</g>
</svg>
